<svg width="800" height="800" viewBox="0 0 800 800" xmlns="http://www.w3.org/2000/svg">
<path d="M646.748 539.488L719.525 301.699C723.56 288.518 743 291.427 743 305.211V543C743 549.627 737.627 555 731 555H658.222C650.156 555 644.387 547.201 646.748 539.488Z" />
<path d="M153.252 539.488L80.4746 301.699C76.4405 288.518 57 291.427 57 305.211V543C57 549.627 62.3726 555 69 555H141.778C149.844 555 155.613 547.201 153.252 539.488Z" />
<path d="M408.75 195V52.7969C408.75 43.5566 418.755 37.7834 426.755 42.4077L672.767 184.611C683.393 190.753 679.035 207 666.761 207H420.75C414.123 207 408.75 201.627 408.75 195Z" />
<path d="M390.75 195V52.7969C390.75 43.5566 380.745 37.7834 372.745 42.4077L126.733 184.611C116.107 190.753 120.465 207 132.739 207H378.75C385.377 207 390.75 201.627 390.75 195Z" />
<path d="M690.674 595.091L525.057 701.676C512.856 709.528 499.788 693.016 510.235 682.946L620.806 576.36C623.042 574.205 626.028 573 629.134 573H684.18C696.153 573 700.743 588.611 690.674 595.091Z" />
<path d="M109.326 595.091L274.943 701.676C287.144 709.528 300.212 693.016 289.765 682.946L179.194 576.36C176.958 574.205 173.972 573 170.866 573H115.82C103.847 573 99.2572 588.611 109.326 595.091Z" />
<path d="M609.363 532.278L432.201 243.272C427.299 235.276 433.053 225 442.431 225H707.792C715.854 225 721.622 232.792 719.269 240.503L631.071 529.509C628.052 539.401 614.769 541.096 609.363 532.278Z" />
<path d="M391.666 759.954L219.374 593.634C211.609 586.137 216.915 573 227.709 573H572.291C583.085 573 588.391 586.137 580.626 593.634L408.334 759.954C403.685 764.443 396.315 764.443 391.666 759.954Z" />
<path d="M190.637 532.278L367.799 243.272C372.701 235.276 366.947 225 357.569 225H92.2085C84.1464 225 78.3778 232.792 80.731 240.503L168.929 529.509C171.948 539.401 185.231 541.096 190.637 532.278Z" />
<path d="M209.18 536.735L389.765 241.72C394.446 234.073 405.554 234.073 410.235 241.72L590.82 536.735C595.714 544.731 589.96 555 580.585 555H219.415C210.04 555 204.286 544.731 209.18 536.735Z" />
</svg>
